<svg data-v-fde0c5aa="" xmlns="http://www.w3.org/2000/svg" viewBox="0 0 300 300" class="iconAbove"><!----><defs data-v-fde0c5aa=""><!----></defs><rect data-v-fde0c5aa="" fill="transparent" x="0" y="0" width="300px" height="300px" class="logo-background-square"></rect><defs data-v-fde0c5aa=""><!----></defs><g data-v-fde0c5aa="" id="3fbf51fe-cf3b-4e98-8e43-702b61c65459" fill="#000000"><path d=""></path></g><defs data-v-fde0c5aa=""><linearGradient data-v-fde0c5aa="" gradientTransform="rotate(25)" id="e8c4cb0a-634f-4280-8e87-27e4e6c41083" x1="0%" y1="0%" x2="100%" y2="0%"><stop data-v-fde0c5aa="" offset="0%" stop-color="#1E0B36" stop-opacity="1"></stop><stop data-v-fde0c5aa="" offset="100%" stop-color="#CA3782" stop-opacity="1"></stop></linearGradient></defs><g data-v-fde0c5aa="" id="cecf5157-90df-4e32-af2f-24c56d8b3107" stroke="none" fill="url(#e8c4cb0a-634f-4280-8e87-27e4e6c41083)"><path d="M66.646 56.857c-.484.04-.942.155-1.367.329a2.259 2.259 0 1 1-2.685 3.04 4.6 4.6 0 0 0-.152 1.591 4.597 4.597 0 1 0 4.204-4.96zM52.597 62.629a4.596 4.596 0 0 0-6.326-3.875 2.257 2.257 0 0 1-.409 4.43 2.26 2.26 0 0 1-2.275-1.389 4.59 4.59 0 0 0-.151 1.59 4.597 4.597 0 1 0 9.161-.756zM59.761 79.698a9.637 9.637 0 0 1-8.192-2.834 7.808 7.808 0 0 0 8.58 5.744c3.945-.524 6.805-3.91 6.776-7.79a9.64 9.64 0 0 1-7.164 4.88z"></path><path d="M84.53 49.854a9.062 9.062 0 0 0-4.688 1.308c-3.232-5.7-8.637-10.16-16.573-11.876l1.761-1.156c.14-.094.24-.24.271-.404l.006-.196a.615.615 0 0 0-.412-.512l-6.46-2.255-1.804-6.6a.624.624 0 0 0-1.1-.21v-.003l-4.14 5.447-6.834-.323a.62.62 0 0 0-.576.322l-.066.183a.628.628 0 0 0 .1.475l3.595 5.181c-.639.107-1.284.222-1.942.353-15.538 3.108-24.395 18.974-24.395 18.974l-.75-.149a10.567 10.567 0 0 0-3.557-.615c-5.899 0-10.681 4.833-10.681 10.793s4.782 10.793 10.681 10.793a10.53 10.53 0 0 0 4.41-.963c5.433 9.448 17.793 15.797 31.942 15.302 17.773-.622 31.97-11.82 32.96-25.478 4.235-.826 7.437-4.588 7.437-9.109 0-5.127-4.113-9.282-9.186-9.282zm-2.901 15.214s3.614 20.78-22.408 26.202S25.25 73.741 25.25 73.741c-2.53 1.265-11.968 4.983-12.108-5.963-.14-10.946 13.011-3.433 13.011-3.433.221-9.626 7.04-19.782 21.208-23.202l-1.864 4.93-.03.102a.63.63 0 0 0 .158.545.62.62 0 0 0 .637.171l6.55-1.971 5.338 4.277a.625.625 0 0 0 1.004-.368l.012-.105.147-6.84 1.949-1.28c12.578 2.866 17.115 15.428 17.115 15.428s7.59-4.879 10.3 1.627c2.711 6.505-7.047 7.409-7.047 7.409zM40.774 20.828l3.609.687 1.48 3.364.028.05a.34.34 0 0 0 .266.15.332.332 0 0 0 .308-.173s1.65-3.004 1.77-3.22c.048-.006 3.657-.37 3.657-.37a.332.332 0 0 0 .281-.216.333.333 0 0 0-.035-.302l-.035-.045-2.517-2.678.78-3.592a.341.341 0 0 0-.047-.256l-.072-.078a.333.333 0 0 0-.351-.04l-3.326 1.565-3.175-1.852a.336.336 0 0 0-.501.333h-.001l.461 3.645-2.741 2.448a.335.335 0 0 0-.1.34l.043.096c.05.074.129.127.218.144zM55.298 8.136l-.832 2.089-.01.033a.206.206 0 0 0 .257.24l2.163-.61 1.73 1.438c.06.05.143.062.215.03a.207.207 0 0 0 .117-.145l.004-.036.089-2.246 1.9-1.2a.21.21 0 0 0 .092-.131l.003-.064a.204.204 0 0 0-.132-.172l-2.11-.778-.554-2.18a.206.206 0 0 0-.361-.076s-1.375 1.743-1.391 1.766l-2.244-.146a.207.207 0 0 0-.192.102l-.022.06c-.012.054-.001.11.03.157l1.248 1.869z"></path></g><!----></svg>